<svg width="40" height="40" viewBox="0 0 40 40" fill="none" xmlns="http://www.w3.org/2000/svg">
<circle cx="20" cy="20" r="19.5" fill="white" stroke="#0C0C0D"/>
<path d="M17.6285 17.7667H22.3361M19.7549 24.5467L15.9273 26.9133C15.6218 27.0926 15.2453 26.9657 15.0768 26.6267C15.028 26.5216 15.0017 26.4052 15 26.2867V15.8C15 13.8 16.2109 13 17.9533 13H22.0467C23.736 13 25 13.7467 25 15.6667V26.2867C25 26.4759 24.9334 26.6573 24.8149 26.7911C24.6964 26.9248 24.5356 27 24.368 27C24.2611 26.9981 24.156 26.9684 24.0608 26.9133L20.2097 24.5467C20.0678 24.4601 19.8968 24.4601 19.7549 24.5467Z" stroke="#0C0C0D" stroke-linecap="round" stroke-linejoin="round"/>
</svg>
