<svg width="32" height="32" viewBox="0 0 32 32" fill="none" xmlns="http://www.w3.org/2000/svg">
<rect width="1440" height="2260" transform="translate(-18 -33)" fill="white"/>
<path d="M61.6763 23.3H59.6991L57.6774 11.4301L52.3012 22.9094H51.7902L46.4139 11.4518L44.3923 23.3H42.3929L45.0143 8.11H46.8805L52.0346 19.2638L57.1887 8.11H59.0992L61.6763 23.3Z" fill="#0C0C0D"/>
<path d="M64.1874 23.3V20.9998H66.3645V23.3H64.1874Z" fill="#0C0C0D"/>
<path d="M93.9588 23.3H91.9816L89.9599 11.4301L84.5837 22.9094H84.0727L78.6965 11.4518L76.6748 23.3H74.6754L77.2969 8.11H79.163L84.3171 19.2638L89.4712 8.11H91.3818L93.9588 23.3Z" fill="#0C0C0D"/>
<path d="M97.0919 23.3V8.11H99.0247V23.3H97.0919Z" fill="#0C0C0D"/>
<path d="M113.783 8.11H115.693V23.3H114.049L105.185 11.4518V23.3H103.297V8.11H105.052L113.783 19.828V8.11Z" fill="#0C0C0D"/>
<path d="M125.113 8.11C127.394 8.11 129.275 8.8261 130.756 10.2583C132.252 11.6905 133 13.5061 133 15.705C133 17.9039 132.252 19.7195 130.756 21.1517C129.275 22.5839 127.394 23.3 125.113 23.3H119.937V8.11H125.113ZM125.047 21.5206C126.794 21.5206 128.224 20.9709 129.334 19.8714C130.445 18.7719 131.001 17.3831 131.001 15.705C131.001 14.5911 130.749 13.5929 130.245 12.7104C129.742 11.8279 129.038 11.1408 128.135 10.6489C127.231 10.1426 126.202 9.8894 125.047 9.8894H121.87V21.5206H125.047Z" fill="#0C0C0D"/>
<path d="M16.3329 20.4942C24.2487 20.4942 30.6657 18.9263 30.6657 16.9922C30.6657 15.0581 24.2487 13.4903 16.3329 13.4903C8.41704 13.4903 2 15.0581 2 16.9922C2 18.9263 8.41704 20.4942 16.3329 20.4942Z" fill="#0C0C0D"/>
<path d="M16.3329 10.8599C24.2487 10.8599 30.6657 10.0794 30.6657 9.1167C30.6657 8.15397 24.2487 7.37356 16.3329 7.37356C8.41704 7.37356 2 8.15397 2 9.1167C2 10.0794 8.41704 10.8599 16.3329 10.8599Z" fill="#0C0C0D"/>
<path d="M16.3329 4.74315C24.2487 4.74315 30.6657 4.35298 30.6657 3.87161C30.6657 3.39024 24.2487 3 16.3329 3C8.41704 3 2 3.39024 2 3.87161C2 4.35298 8.41704 4.74315 16.3329 4.74315Z" fill="#0C0C0D"/>
<path d="M16.3329 26.6264C24.2487 26.6264 30.6657 25.846 30.6657 24.8833C30.6657 23.9206 24.2487 23.1401 16.3329 23.1401C8.41704 23.1401 2 23.9206 2 24.8833C2 25.846 8.41704 26.6264 16.3329 26.6264Z" fill="#0C0C0D"/>
<path d="M16.3329 31C24.2487 31 30.6657 30.6098 30.6657 30.1284C30.6657 29.647 24.2487 29.2568 16.3329 29.2568C8.41704 29.2568 2 29.647 2 30.1284C2 30.6098 8.41704 31 16.3329 31Z" fill="#0C0C0D"/>
</svg>
