<svg xmlns="http://www.w3.org/2000/svg" xmlns:xlink="http://www.w3.org/1999/xlink"><symbol id="bookmarks" viewBox="0 0 40 40"><g fill="none">
<circle cx="20" cy="20" r="19.5" fill="white" stroke="#0C0C0D"/>
<path d="M17.6285 17.7667H22.3361M19.7549 24.5467L15.9273 26.9133C15.6218 27.0926 15.2453 26.9657 15.0768 26.6267C15.028 26.5216 15.0017 26.4052 15 26.2867V15.8C15 13.8 16.2109 13 17.9533 13H22.0467C23.736 13 25 13.7467 25 15.6667V26.2867C25 26.4759 24.9334 26.6573 24.8149 26.7911C24.6964 26.9248 24.5356 27 24.368 27C24.2611 26.9981 24.156 26.9684 24.0608 26.9133L20.2097 24.5467C20.0678 24.4601 19.8968 24.4601 19.7549 24.5467Z" stroke="#0C0C0D" stroke-linecap="round" stroke-linejoin="round"/>
</g></symbol><symbol id="logotype" viewBox="0 0 131 28"><g fill="none">
<path d="M59.6763 20.3H57.6991L55.6774 8.4301L50.3012 19.9094H49.7902L44.4139 8.4518L42.3923 20.3H40.3929L43.0143 5.11H44.8805L50.0346 16.2638L55.1887 5.11H57.0992L59.6763 20.3Z" fill="#0C0C0D"/>
<path d="M62.1874 20.3V17.9998H64.3645V20.3H62.1874Z" fill="#0C0C0D"/>
<path d="M91.9588 20.3H89.9816L87.9599 8.4301L82.5837 19.9094H82.0727L76.6965 8.4518L74.6748 20.3H72.6754L75.2969 5.11H77.163L82.3171 16.2638L87.4712 5.11H89.3818L91.9588 20.3Z" fill="#0C0C0D"/>
<path d="M95.0919 20.3V5.11H97.0247V20.3H95.0919Z" fill="#0C0C0D"/>
<path d="M111.783 5.11H113.693V20.3H112.049L103.185 8.4518V20.3H101.297V5.11H103.052L111.783 16.828V5.11Z" fill="#0C0C0D"/>
<path d="M123.113 5.11C125.394 5.11 127.275 5.8261 128.756 7.2583C130.252 8.6905 131 10.5061 131 12.705C131 14.9039 130.252 16.7195 128.756 18.1517C127.275 19.5839 125.394 20.3 123.113 20.3H117.937V5.11H123.113ZM123.047 18.5206C124.794 18.5206 126.224 17.9709 127.334 16.8714C128.445 15.7719 129.001 14.3831 129.001 12.705C129.001 11.5911 128.749 10.5929 128.245 9.7104C127.742 8.82793 127.038 8.14077 126.135 7.6489C125.231 7.14257 124.202 6.8894 123.047 6.8894H119.87V18.5206H123.047Z" fill="#0C0C0D"/>
<path d="M14.3329 17.4942C22.2487 17.4942 28.6657 15.9263 28.6657 13.9922C28.6657 12.0581 22.2487 10.4903 14.3329 10.4903C6.41704 10.4903 0 12.0581 0 13.9922C0 15.9263 6.41704 17.4942 14.3329 17.4942Z" fill="#0C0C0D"/>
<path d="M14.3329 7.85993C22.2487 7.85993 28.6657 7.07944 28.6657 6.1167C28.6657 5.15397 22.2487 4.37356 14.3329 4.37356C6.41704 4.37356 0 5.15397 0 6.1167C0 7.07944 6.41704 7.85993 14.3329 7.85993Z" fill="#0C0C0D"/>
<path d="M14.3329 1.74315C22.2487 1.74315 28.6657 1.35298 28.6657 0.871611C28.6657 0.390242 22.2487 0 14.3329 0C6.41704 0 0 0.390242 0 0.871611C0 1.35298 6.41704 1.74315 14.3329 1.74315Z" fill="#0C0C0D"/>
<path d="M14.3329 23.6264C22.2487 23.6264 28.6657 22.846 28.6657 21.8833C28.6657 20.9206 22.2487 20.1401 14.3329 20.1401C6.41704 20.1401 0 20.9206 0 21.8833C0 22.846 6.41704 23.6264 14.3329 23.6264Z" fill="#0C0C0D"/>
<path d="M14.3329 28C22.2487 28 28.6657 27.6098 28.6657 27.1284C28.6657 26.647 22.2487 26.2568 14.3329 26.2568C6.41704 26.2568 0 26.647 0 27.1284C0 27.6098 6.41704 28 14.3329 28Z" fill="#0C0C0D"/>
</g></symbol><symbol id="notifications" viewBox="0 0 40 40"><g fill="none">
<circle cx="20" cy="20" r="19.5" fill="white" stroke="#0C0C0D"/>
<path d="M18.5617 26.1962C18.8554 26.6349 19.2867 26.9188 19.7601 26.9851C20.2336 27.0514 20.7101 26.8946 21.0843 26.5495C21.1994 26.4474 21.3029 26.3287 21.3925 26.1962M15.0005 21.251V21.0977C15.0194 20.6442 15.1415 20.2047 15.3543 19.8247C15.7085 19.3682 15.951 18.8088 16.0563 18.2052C16.0563 17.7387 16.0563 17.2655 16.0905 16.7989C16.2675 14.5529 18.1337 13 19.9771 13H20.0227C21.8661 13 23.7324 14.5529 23.915 16.7989C23.9492 17.2655 23.915 17.7387 23.9435 18.2052C24.0503 18.8102 24.2925 19.3714 24.6455 19.8314C24.8599 20.208 24.9822 20.6459 24.9994 21.0977V21.2443C25.0121 21.8536 24.8357 22.4478 24.5028 22.9172C24.0629 23.466 23.4659 23.8075 22.8249 23.8769C20.9453 24.1168 19.0488 24.1168 17.1692 23.8769C16.5289 23.8045 15.9328 23.4635 15.4913 22.9172C15.1635 22.4474 14.9896 21.8568 15.0005 21.251Z" stroke="#0C0C0D" stroke-linecap="round" stroke-linejoin="round"/>
</g></symbol><symbol id="search" viewBox="0 0 16 16"><g fill="none">
<path d="M12.3707 12.44L15 15M14.4127 7.54667C14.4127 11.1623 11.4102 14.0933 7.70634 14.0933C4.00253 14.0933 1 11.1623 1 7.54667C1 3.93104 4.00253 1 7.70634 1C11.4102 1 14.4127 3.93104 14.4127 7.54667Z" stroke="#0C0C0D" stroke-linecap="round" stroke-linejoin="round"/>
</g></symbol></svg>