<svg width="40" height="40" viewBox="0 0 40 40" fill="none" xmlns="http://www.w3.org/2000/svg">
<circle cx="20" cy="20" r="19.5" fill="white" stroke="#0C0C0D"/>
<path d="M18.5617 26.1962C18.8554 26.6349 19.2867 26.9188 19.7601 26.9851C20.2336 27.0514 20.7101 26.8946 21.0843 26.5495C21.1994 26.4474 21.3029 26.3287 21.3925 26.1962M15.0005 21.251V21.0977C15.0194 20.6442 15.1415 20.2047 15.3543 19.8247C15.7085 19.3682 15.951 18.8088 16.0563 18.2052C16.0563 17.7387 16.0563 17.2655 16.0905 16.7989C16.2675 14.5529 18.1337 13 19.9771 13H20.0227C21.8661 13 23.7324 14.5529 23.915 16.7989C23.9492 17.2655 23.915 17.7387 23.9435 18.2052C24.0503 18.8102 24.2925 19.3714 24.6455 19.8314C24.8599 20.208 24.9822 20.6459 24.9994 21.0977V21.2443C25.0121 21.8536 24.8357 22.4478 24.5028 22.9172C24.0629 23.466 23.4659 23.8075 22.8249 23.8769C20.9453 24.1168 19.0488 24.1168 17.1692 23.8769C16.5289 23.8045 15.9328 23.4635 15.4913 22.9172C15.1635 22.4474 14.9896 21.8568 15.0005 21.251Z" stroke="#0C0C0D" stroke-linecap="round" stroke-linejoin="round"/>
</svg>
